<?xml version="1.0" standalone="no"?>
<!DOCTYPE svg PUBLIC "-//W3C//DTD SVG 20010904//EN"
 "http://www.w3.org/TR/2001/REC-SVG-20010904/DTD/svg10.dtd">
<svg version="1.0" xmlns="http://www.w3.org/2000/svg"
 width="2000.000000pt" height="2000.000000pt" viewBox="0 0 2000.000000 2000.000000"
 preserveAspectRatio="xMidYMid meet">
<metadata>
Created by potrace 1.14, written by Peter Selinger 2001-2017
</metadata>
<g transform="translate(0.000000,2000.000000) scale(0.100000,-0.100000)"
fill="#000000" stroke="none">
<path d="M9410 19905 c-234 -15 -352 -25 -570 -51 -160 -18 -220 -27 -435 -59
-227 -34 -676 -129 -910 -192 -71 -19 -155 -41 -185 -49 -288 -76 -825 -264
-1175 -412 -730 -307 -1516 -762 -2125 -1230 -192 -148 -215 -166 -220 -171
-3 -3 -38 -33 -79 -65 -91 -73 -286 -241 -411 -355 -115 -105 -481 -468 -574
-571 -38 -41 -85 -93 -105 -115 -20 -22 -66 -74 -101 -115 -36 -41 -67 -77
-70 -80 -3 -3 -28 -32 -55 -65 -28 -33 -52 -62 -55 -65 -46 -44 -407 -524
-505 -670 -27 -41 -52 -77 -55 -80 -9 -9 -185 -281 -255 -395 -70 -113 -146
-245 -264 -457 -36 -66 -261 -514 -261 -521 0 -3 -22 -51 -49 -108 -163 -349
-361 -890 -491 -1344 -43 -150 -140 -529 -154 -605 -2 -14 -14 -70 -25 -124
-21 -99 -64 -334 -76 -411 -3 -22 -7 -51 -10 -65 -3 -23 -8 -53 -36 -250 -5
-36 -11 -90 -14 -120 -3 -30 -7 -73 -10 -95 -10 -85 -14 -133 -20 -215 -4 -47
-8 -96 -10 -109 -19 -120 -27 -1003 -12 -1276 9 -164 15 -251 22 -320 3 -27 7
-77 10 -110 3 -33 7 -76 10 -95 3 -19 7 -62 10 -95 3 -33 8 -71 10 -85 3 -14
14 -90 25 -170 121 -881 415 -1896 771 -2658 21 -46 39 -86 39 -88 0 -17 289
-580 337 -656 13 -21 23 -40 23 -42 0 -4 46 -83 149 -258 29 -50 175 -283 184
-293 4 -5 40 -59 80 -120 187 -283 491 -682 721 -945 313 -359 644 -692 986
-992 918 -805 2004 -1446 3145 -1858 631 -228 1303 -397 1915 -484 34 -4 161
-22 228 -31 18 -3 76 -10 130 -15 53 -6 115 -12 137 -15 22 -2 76 -7 120 -10
44 -3 96 -8 115 -10 164 -21 998 -28 1310 -11 91 4 167 9 170 11 3 2 49 6 103
10 53 3 105 8 115 9 9 2 53 7 97 10 44 4 87 9 95 11 8 2 42 6 75 10 33 3 87
10 120 15 33 5 83 12 110 15 87 10 493 85 660 121 673 146 1415 394 2030 679
1762 817 3245 2128 4277 3780 71 115 258 432 258 440 0 2 16 32 36 67 116 202
310 610 439 918 317 761 567 1677 660 2420 3 25 10 72 15 105 5 33 12 92 16
130 3 39 8 77 9 85 2 8 6 51 10 95 3 44 8 96 10 115 6 50 15 183 25 345 8 145
6 1037 -4 1090 -2 17 -7 75 -11 130 -31 525 -133 1164 -279 1737 -85 336 -216
758 -310 1002 -89 230 -115 296 -169 421 -118 277 -304 664 -401 833 -20 35
-36 66 -36 68 0 6 -182 322 -229 397 -96 155 -380 578 -476 707 -92 124 -319
415 -335 430 -3 3 -28 32 -55 65 -28 33 -52 62 -55 65 -3 3 -18 21 -34 40 -27
34 -129 148 -246 275 -93 101 -459 465 -564 560 -55 50 -104 95 -110 100 -51
47 -249 214 -376 317 -921 744 -2000 1330 -3132 1701 -57 19 -184 57 -283 86
-99 28 -193 56 -210 61 -146 45 -704 167 -935 204 -172 28 -397 60 -500 71
-30 3 -71 8 -90 10 -19 2 -64 7 -100 10 -36 4 -81 8 -100 10 -19 2 -84 7 -145
10 -60 4 -126 9 -145 12 -85 11 -976 10 -1160 -2z"/>
</g>
</svg>
